<svg xmlns="http://www.w3.org/2000/svg" viewBox="0 0 64 64" role="img" aria-label="Stowge">
  <defs>
    <linearGradient id="g" x1="0" y1="0" x2="1" y2="1">
      <stop offset="0%" stop-color="#2563eb"/>
      <stop offset="100%" stop-color="#1d4ed8"/>
    </linearGradient>
  </defs>
  <rect x="6" y="6" width="52" height="52" rx="12" fill="url(#g)"/>
  <path d="M41.8 20.8c-2.2-2-5.3-3.1-9.2-3.1-6.8 0-11.4 3.4-11.4 8.9 0 11.3 16.7 6.2 16.7 12.3 0 2.1-2.1 3.4-5.5 3.4-3 0-6.1-1.1-8.6-3.1l-3.3 4.4c3.1 2.7 7.3 4.2 11.8 4.2 7.4 0 12-3.6 12-9.2 0-11.4-16.7-6.8-16.7-12.6 0-1.9 1.8-3 4.8-3 2.4 0 4.9.8 7.1 2.3l2.3-4.5z" fill="#ffffff"/>
</svg>
